<?xml version="1.0" encoding="utf-8" standalone="yes"?>
<!DOCTYPE svg PUBLIC "-//W3C//DTD SVG 1.1//EN" "http://www.w3.org/Graphics/SVG/1.1/DTD/svg11.dtd">
<svg width="346" height="702" viewBox="0 0 346 702" style="fill:none;stroke:none;fill-rule:evenodd;clip-rule:evenodd;stroke-linecap:round;stroke-linejoin:round;stroke-miterlimit:1.5;" version="1.1" xmlns="http://www.w3.org/2000/svg" xmlns:xlink="http://www.w3.org/1999/xlink"><style id="fontImports">@import url("https://fonts.googleapis.com/css2?family=Roboto:wght@400;700&amp;display=block");</style><g id="items" style="isolation: isolate"><g id="blend" style="mix-blend-mode:normal"><g id="g-root-ro_1cwr62f10dxdsf-fill" data-item-order="999988768" data-item-id="ro_1cwr62f10dxdsf" data-item-class="Shape Stroke Fill" data-item-index="none" data-renderer-id="0" transform="translate(115, 479)"><g id="ro_1cwr62f10dxdsf-fill" stroke="none" fill="#224754"><g><path d="M 22 10L 154 10C 154 10 166 10 166 22L 166 70C 166 70 166 82 154 82L 22 82C 22 82 10 82 10 70L 10 22C 10 22 10 10 22 10"></path></g></g></g><g id="g-root-ro_1qdty7r10e4ft9-fill" data-item-order="999989632" data-item-id="ro_1qdty7r10e4ft9" data-item-class="Shape Stroke Fill" data-item-index="none" data-renderer-id="0" transform="translate(121, 607)"><g id="ro_1qdty7r10e4ft9-fill" stroke="none" fill="#224754"><g><path d="M 22 10L 142 10C 142 10 154 10 154 22L 154 70C 154 70 154 82 142 82L 22 82C 22 82 10 82 10 70L 10 22C 10 22 10 10 22 10"></path></g></g></g><g id="g-root-ro_1hap8xj10dt7gu-fill" data-item-order="999989632" data-item-id="ro_1hap8xj10dt7gu" data-item-class="Shape Stroke Fill" data-item-index="none" data-renderer-id="0" transform="translate(121, 351)"><g id="ro_1hap8xj10dt7gu-fill" stroke="none" fill="#224754"><g><path d="M 22 10L 142 10C 142 10 154 10 154 22L 154 70C 154 70 154 82 142 82L 22 82C 22 82 10 82 10 70L 10 22C 10 22 10 10 22 10"></path></g></g></g><g id="g-root-ro_qsruk710e4geh-fill" data-item-order="999989632" data-item-id="ro_qsruk710e4geh" data-item-class="Shape Stroke Fill" data-item-index="none" data-renderer-id="0" transform="translate(121, 3)"><g id="ro_qsruk710e4geh-fill" stroke="none" fill="#505050"><g><path d="M 22 10L 142 10C 142 10 154 10 154 22L 154 70C 154 70 154 82 142 82L 22 82C 22 82 10 82 10 70L 10 22C 10 22 10 10 22 10"></path></g></g></g><g id="g-root-ro_1um5o5310e32mh-fill" data-item-order="999989632" data-item-id="ro_1um5o5310e32mh" data-item-class="Shape Stroke Fill" data-item-index="none" data-renderer-id="0" transform="translate(97, 131)"><g id="ro_1um5o5310e32mh-fill" stroke="none" fill="#224754"><g><path d="M 22 10L 190 10C 190 10 202 10 202 22L 202 52C 202 52 202 64 190 64L 22 64C 22 64 10 64 10 52L 10 22C 10 22 10 10 22 10"></path></g></g></g><g id="g-root-ro_v4af10e8nie-fill" data-item-order="999990280" data-item-id="ro_v4af10e8nie" data-item-class="Shape Stroke Fill" data-item-index="none" data-renderer-id="0" transform="translate(3, 241)"><g id="ro_v4af10e8nie-fill" stroke="none" fill="#224754"><g><path d="M 22 10L 178 10C 178 10 190 10 190 22L 190 52C 190 52 190 64 178 64L 22 64C 22 64 10 64 10 52L 10 22C 10 22 10 10 22 10"></path></g></g></g><g id="g-root-ro_5uwzb10ebg1x-fill" data-item-order="999993520" data-item-id="ro_5uwzb10ebg1x" data-item-class="Shape Stroke Fill" data-item-index="none" data-renderer-id="0" transform="translate(203, 241)"><g id="ro_5uwzb10ebg1x-fill" stroke="none" fill="#224754"><g><path d="M 22 10L 118 10C 118 10 130 10 130 22L 130 52C 130 52 130 64 118 64L 22 64C 22 64 10 64 10 52L 10 22C 10 22 10 10 22 10"></path></g></g></g><g id="g-root-user_1lrrp8710dxg5i-fill" data-item-order="1000000000" data-item-id="user_1lrrp8710dxg5i" data-item-class="Icon Stroke" data-item-index="none" data-renderer-id="0" transform="translate(127, 500)"></g><g id="g-root-tx_modelinf_4hxnqv10dxdzh-fill" data-item-order="1000000000" data-item-id="tx_modelinf_4hxnqv10dxdzh" data-item-class="Label Stroke" data-item-index="none" data-renderer-id="0" transform="translate(163, 491)"><g id="tx_modelinf_4hxnqv10dxdzh-fill" stroke="none" fill="#1AC6FF"><g><text style="font: 20px &quot;Roboto&quot;, sans-serif; white-space: pre;" font-size="20px" font-family="'Roboto', sans-serif"><tspan x="12" y="34" dominant-baseline="ideographic">Model </tspan><tspan x="12" y="58" dominant-baseline="ideographic">Inference</tspan></text></g></g></g><g id="g-root-corn_4gomev10e8mq5-fill" data-item-order="1000000000" data-item-id="corn_4gomev10e8mq5" data-item-class="Icon Stroke" data-item-index="none" data-renderer-id="0" transform="translate(15, 253)"></g><g id="g-root-tx_preproce_dcbmnr10e30gf-fill" data-item-order="1000000000" data-item-id="tx_preproce_dcbmnr10e30gf" data-item-class="Label Stroke" data-item-index="none" data-renderer-id="0" transform="translate(145, 146)"><g id="tx_preproce_dcbmnr10e30gf-fill" stroke="none" fill="#1AC6FF"><g><text style="font: 20px &quot;Roboto&quot;, sans-serif; white-space: pre;" font-size="20px" font-family="'Roboto', sans-serif"><tspan x="12" y="34" dominant-baseline="ideographic">Preprocessing</tspan></text></g></g></g><g id="g-root-2_4gomev10e320w-fill" data-item-order="1000000000" data-item-id="2_4gomev10e320w" data-item-class="Icon Stroke" data-item-index="none" data-renderer-id="0" transform="translate(109, 143)"></g><g id="g-root-3_4lof3r10ebf9o-fill" data-item-order="1000000000" data-item-id="3_4lof3r10ebf9o" data-item-class="Icon Stroke" data-item-index="none" data-renderer-id="0" transform="translate(215, 253)"></g><g id="g-root-tx_sdfs_qs5gmv10ebg1v-fill" data-item-order="1000000000" data-item-id="tx_sdfs_qs5gmv10ebg1v" data-item-class="Label Stroke" data-item-index="none" data-renderer-id="0" transform="translate(251, 256)"><g id="tx_sdfs_qs5gmv10ebg1v-fill" stroke="none" fill="#1AC6FF"><g><text style="font: 20px &quot;Roboto&quot;, sans-serif; white-space: pre;" font-size="20px" font-family="'Roboto', sans-serif"><tspan x="12" y="34" dominant-baseline="ideographic">SDFs</tspan></text></g></g></g><g id="g-root-tx_pointclo_hrinp310e8ob0-fill" data-item-order="1000000000" data-item-id="tx_pointclo_hrinp310e8ob0" data-item-class="Label Stroke" data-item-index="none" data-renderer-id="0" transform="translate(51, 256)"><g id="tx_pointclo_hrinp310e8ob0-fill" stroke="none" fill="#1AC6FF"><g><text style="font: 20px &quot;Roboto&quot;, sans-serif; white-space: pre;" font-size="20px" font-family="'Roboto', sans-serif"><tspan x="12" y="34" dominant-baseline="ideographic">Pointclouds</tspan></text></g></g></g><g id="g-root-tx_original_1hf2e7r10e4gef-fill" data-item-order="1000000000" data-item-id="tx_original_1hf2e7r10e4gef" data-item-class="Label Stroke" data-item-index="none" data-renderer-id="0" transform="translate(169, 15)"><g id="tx_original_1hf2e7r10e4gef-fill" stroke="none" fill="#A3A3A3"><g><text style="font: 20px &quot;Roboto&quot;, sans-serif; white-space: pre;" font-size="20px" font-family="'Roboto', sans-serif"><tspan x="12" y="34" dominant-baseline="ideographic">Original </tspan><tspan x="12" y="58" dominant-baseline="ideographic">Movies</tspan></text></g></g></g><g id="g-root-bars_8cwhj10e4f7o-fill" data-item-order="1000000000" data-item-id="bars_8cwhj10e4f7o" data-item-class="Icon Stroke" data-item-index="none" data-renderer-id="0" transform="translate(133, 628)"></g><g id="g-root-1_1q6c96f10dt6o5-fill" data-item-order="1000000000" data-item-id="1_1q6c96f10dt6o5" data-item-class="Icon Stroke" data-item-index="none" data-renderer-id="0" transform="translate(133, 372)"></g><g id="g-root-tx_modeltra_4g28hj10dt8g4-fill" data-item-order="1000000000" data-item-id="tx_modeltra_4g28hj10dt8g4" data-item-class="Label Stroke" data-item-index="none" data-renderer-id="0" transform="translate(169, 363)"><g id="tx_modeltra_4g28hj10dt8g4-fill" stroke="none" fill="#1AC6FF"><g><text style="font: 20px &quot;Roboto&quot;, sans-serif; white-space: pre;" font-size="20px" font-family="'Roboto', sans-serif"><tspan x="12" y="34" dominant-baseline="ideographic">Model </tspan><tspan x="12" y="58" dominant-baseline="ideographic">Training</tspan></text></g></g></g><g id="g-root-reel_1448cxj10e4etk-fill" data-item-order="1000000000" data-item-id="reel_1448cxj10e4etk" data-item-class="Icon Stroke" data-item-index="none" data-renderer-id="0" transform="translate(133, 24)"></g><g id="g-root-tx_dataanal_qung5310e4f7n-fill" data-item-order="1000000000" data-item-id="tx_dataanal_qung5310e4f7n" data-item-class="Label Stroke" data-item-index="none" data-renderer-id="0" transform="translate(169, 619)"><g id="tx_dataanal_qung5310e4f7n-fill" stroke="none" fill="#1AC6FF"><g><text style="font: 20px &quot;Roboto&quot;, sans-serif; white-space: pre;" font-size="20px" font-family="'Roboto', sans-serif"><tspan x="12" y="34" dominant-baseline="ideographic">Data </tspan><tspan x="12" y="58" dominant-baseline="ideographic">Analysis</tspan></text></g></g></g><g id="g-root-cu_1lpw9yv10e5u6c-fill" data-item-order="1000000002" data-item-id="cu_1lpw9yv10e5u6c" data-item-class="Curve Stroke" data-item-index="none" data-renderer-id="0" transform="translate(193, 185)"></g><g id="g-root-cu_1lpw9yv10e5u69-fill" data-item-order="1000000002" data-item-id="cu_1lpw9yv10e5u69" data-item-class="Curve Stroke" data-item-index="none" data-renderer-id="0" transform="translate(93, 185)"></g><g id="g-root-cu_1lpw9yv10e5u6e-fill" data-item-order="1000000002" data-item-id="cu_1lpw9yv10e5u6e" data-item-class="Curve Stroke" data-item-index="none" data-renderer-id="0" transform="translate(93, 295)"></g><g id="g-root-cu_1lpw9yv10e5u6h-fill" data-item-order="1000000002" data-item-id="cu_1lpw9yv10e5u6h" data-item-class="Curve Stroke" data-item-index="none" data-renderer-id="0" transform="translate(193, 295)"></g><g id="g-root-cu_1q5ps3b10e5tdy-fill" data-item-order="1000000002" data-item-id="cu_1q5ps3b10e5tdy" data-item-class="Curve Stroke" data-item-index="none" data-renderer-id="0" transform="translate(193, 75)"></g><g id="g-root-cu_1lpw9yv10e5u6j-fill" data-item-order="1000000002" data-item-id="cu_1lpw9yv10e5u6j" data-item-class="Curve Stroke" data-item-index="none" data-renderer-id="0" transform="translate(193, 423)"></g><g id="g-root-cu_1ha2ruf10e5uyu-fill" data-item-order="1000000002" data-item-id="cu_1ha2ruf10e5uyu" data-item-class="Curve Stroke" data-item-index="none" data-renderer-id="0" transform="translate(193, 551)"></g><g id="g-root-ro_1cwr62f10dxdsf-stroke" data-item-order="999988768" data-item-id="ro_1cwr62f10dxdsf" data-item-class="Shape Stroke Fill" data-item-index="none" data-renderer-id="0" transform="translate(115, 479)"><g id="ro_1cwr62f10dxdsf-stroke" fill="none" stroke-linecap="round" stroke-linejoin="round" stroke-miterlimit="4" stroke="#1AC6FF" stroke-width="2"><g><path d="M 22 10L 154 10C 154 10 166 10 166 22L 166 70C 166 70 166 82 154 82L 22 82C 22 82 10 82 10 70L 10 22C 10 22 10 10 22 10"></path></g></g></g><g id="g-root-ro_1qdty7r10e4ft9-stroke" data-item-order="999989632" data-item-id="ro_1qdty7r10e4ft9" data-item-class="Shape Stroke Fill" data-item-index="none" data-renderer-id="0" transform="translate(121, 607)"><g id="ro_1qdty7r10e4ft9-stroke" fill="none" stroke-linecap="round" stroke-linejoin="round" stroke-miterlimit="4" stroke="#1AC6FF" stroke-width="2"><g><path d="M 22 10L 142 10C 142 10 154 10 154 22L 154 70C 154 70 154 82 142 82L 22 82C 22 82 10 82 10 70L 10 22C 10 22 10 10 22 10"></path></g></g></g><g id="g-root-ro_1hap8xj10dt7gu-stroke" data-item-order="999989632" data-item-id="ro_1hap8xj10dt7gu" data-item-class="Shape Stroke Fill" data-item-index="none" data-renderer-id="0" transform="translate(121, 351)"><g id="ro_1hap8xj10dt7gu-stroke" fill="none" stroke-linecap="round" stroke-linejoin="round" stroke-miterlimit="4" stroke="#1AC6FF" stroke-width="2"><g><path d="M 22 10L 142 10C 142 10 154 10 154 22L 154 70C 154 70 154 82 142 82L 22 82C 22 82 10 82 10 70L 10 22C 10 22 10 10 22 10"></path></g></g></g><g id="g-root-ro_qsruk710e4geh-stroke" data-item-order="999989632" data-item-id="ro_qsruk710e4geh" data-item-class="Shape Stroke Fill" data-item-index="none" data-renderer-id="0" transform="translate(121, 3)"><g id="ro_qsruk710e4geh-stroke" fill="none" stroke-linecap="round" stroke-linejoin="round" stroke-miterlimit="4" stroke="#A3A3A3" stroke-width="2"><g><path d="M 22 10L 142 10C 142 10 154 10 154 22L 154 70C 154 70 154 82 142 82L 22 82C 22 82 10 82 10 70L 10 22C 10 22 10 10 22 10"></path></g></g></g><g id="g-root-ro_1um5o5310e32mh-stroke" data-item-order="999989632" data-item-id="ro_1um5o5310e32mh" data-item-class="Shape Stroke Fill" data-item-index="none" data-renderer-id="0" transform="translate(97, 131)"><g id="ro_1um5o5310e32mh-stroke" fill="none" stroke-linecap="round" stroke-linejoin="round" stroke-miterlimit="4" stroke="#1AC6FF" stroke-width="2"><g><path d="M 22 10L 190 10C 190 10 202 10 202 22L 202 52C 202 52 202 64 190 64L 22 64C 22 64 10 64 10 52L 10 22C 10 22 10 10 22 10"></path></g></g></g><g id="g-root-ro_v4af10e8nie-stroke" data-item-order="999990280" data-item-id="ro_v4af10e8nie" data-item-class="Shape Stroke Fill" data-item-index="none" data-renderer-id="0" transform="translate(3, 241)"><g id="ro_v4af10e8nie-stroke" fill="none" stroke-linecap="round" stroke-linejoin="round" stroke-miterlimit="4" stroke="#1AC6FF" stroke-width="2"><g><path d="M 22 10L 178 10C 178 10 190 10 190 22L 190 52C 190 52 190 64 178 64L 22 64C 22 64 10 64 10 52L 10 22C 10 22 10 10 22 10"></path></g></g></g><g id="g-root-ro_5uwzb10ebg1x-stroke" data-item-order="999993520" data-item-id="ro_5uwzb10ebg1x" data-item-class="Shape Stroke Fill" data-item-index="none" data-renderer-id="0" transform="translate(203, 241)"><g id="ro_5uwzb10ebg1x-stroke" fill="none" stroke-linecap="round" stroke-linejoin="round" stroke-miterlimit="4" stroke="#1AC6FF" stroke-width="2"><g><path d="M 22 10L 118 10C 118 10 130 10 130 22L 130 52C 130 52 130 64 118 64L 22 64C 22 64 10 64 10 52L 10 22C 10 22 10 10 22 10"></path></g></g></g><g id="g-root-user_1lrrp8710dxg5i-stroke" data-item-order="1000000000" data-item-id="user_1lrrp8710dxg5i" data-item-class="Icon Stroke" data-item-index="none" data-renderer-id="0" transform="translate(127, 500)"><g id="user_1lrrp8710dxg5i-stroke" fill="none" stroke-linecap="round" stroke-linejoin="round" stroke-miterlimit="4" stroke="#1AC6FF" stroke-width="2"><g><path d="M 23.75 25.625C 19.607864 25.625 16.25 22.267136 16.25 18.125C 16.25 13.982864 19.607864 10.625 23.75 10.625ZM 11.875 39.375C 11.875 32.81662 17.191618 27.5 23.75 27.5L 23.75 39.375ZM 26.25 25.625C 26.669079 25.62249 27.08721 25.584858 27.5 25.512501L 27.5 23.6C 28.114824 23.45896 28.701128 23.214209 29.233749 22.876249L 30.591249 24.233749C 31.275032 23.747475 31.872475 23.150032 32.358749 22.466249L 31 21.108749C 31.338396 20.576212 31.583572 19.989904 31.724998 19.375L 33.637501 19.375C 33.709858 18.962208 33.74749 18.544079 33.75 18.125C 33.74749 17.705921 33.709858 17.287792 33.637501 16.875L 31.724998 16.875C 31.583572 16.260096 31.338396 15.673787 31 15.14125L 32.357498 13.78375C 31.871225 13.099968 31.273783 12.502524 30.59 12.01625L 29.233749 13.375C 28.701212 13.036602 28.114902 12.791427 27.499998 12.65L 27.5 10.7375C 27.08721 10.665142 26.669079 10.62751 26.25 10.625M 26.25 15.625C 27.630713 15.625 28.75 16.744287 28.75 18.125C 28.75 19.505713 27.630713 20.625 26.25 20.625M 38.125 39.375C 38.120491 38.746685 38.066154 38.11972 37.962498 37.499996L 35.436253 37.5C 35.269238 36.689056 34.994289 35.904152 34.618752 35.166252L 36.4575 33.328751C 35.597328 31.877451 34.438881 30.625269 33.05875 29.655001L 31.256248 31.45875C 30.482542 30.966578 29.640015 30.592075 28.75625 30.3475L 28.75625 27.768749C 27.932667 27.590916 27.092564 27.500828 26.25 27.5M 26.25 34.375C 29.011423 34.375 31.25 36.613575 31.25 39.375"></path></g></g></g><g id="g-root-tx_modelinf_4hxnqv10dxdzh-stroke" data-item-order="1000000000" data-item-id="tx_modelinf_4hxnqv10dxdzh" data-item-class="Label Stroke" data-item-index="none" data-renderer-id="0" transform="translate(163, 491)"></g><g id="g-root-corn_4gomev10e8mq5-stroke" data-item-order="1000000000" data-item-id="corn_4gomev10e8mq5" data-item-class="Icon Stroke" data-item-index="none" data-renderer-id="0" transform="translate(15, 253)"><g id="corn_4gomev10e8mq5-stroke" fill="none" stroke-linecap="round" stroke-linejoin="round" stroke-miterlimit="4" stroke="#1AC6FF" stroke-width="2"><g><path d="M 32.5 27.142857C 35.458668 27.142857 37.857143 24.744383 37.857143 21.785713C 37.857143 18.827045 35.458668 16.428572 32.5 16.428572C 31.278067 16.432644 30.093052 16.847776 29.135712 17.607143C 28.343506 13.437777 24.445629 10.603277 20.235067 11.134676C 16.024506 11.666075 12.953099 15.38014 13.221631 19.615599C 13.490163 23.851057 17.006041 27.147484 21.25 27.142857Z"></path></g></g></g><g id="g-root-tx_preproce_dcbmnr10e30gf-stroke" data-item-order="1000000000" data-item-id="tx_preproce_dcbmnr10e30gf" data-item-class="Label Stroke" data-item-index="none" data-renderer-id="0" transform="translate(145, 146)"></g><g id="g-root-2_4gomev10e320w-stroke" data-item-order="1000000000" data-item-id="2_4gomev10e320w" data-item-class="Icon Stroke" data-item-index="none" data-renderer-id="0" transform="translate(109, 143)"><g id="2_4gomev10e320w-stroke" fill="none" stroke-linecap="round" stroke-linejoin="round" stroke-miterlimit="4" stroke="#1AC6FF" stroke-width="2"><g><path d="M 21.875 25.001251C 21.875 26.72714 23.274111 28.126251 25 28.126251C 26.725891 28.126251 28.125 26.72714 28.125 25.001251C 28.125 23.27536 26.725891 21.876251 25 21.876251C 23.274111 21.876251 21.875 23.27536 21.875 25.001251ZM 15 25.001251C 15 30.524097 19.477152 35.001251 25 35.001251C 30.522846 35.001251 35 30.524097 35 25.001251C 35 19.478403 30.522846 15.00125 25 15.00125C 19.477152 15.00125 15 19.478403 15 25.001251ZM 25 15.00125L 25 10.62625M 32.071251 17.93L 35.165001 14.83625M 35 25.001251L 39.375 25.001251M 32.071251 32.072502L 35.165001 35.166248M 25 35.001251L 25 39.376251M 17.928749 32.072502L 14.835 35.166248M 15 25.001251L 10.625 25.001251M 17.928749 17.93L 14.835 14.83625"></path></g></g></g><g id="g-root-3_4lof3r10ebf9o-stroke" data-item-order="1000000000" data-item-id="3_4lof3r10ebf9o" data-item-class="Icon Stroke" data-item-index="none" data-renderer-id="0" transform="translate(215, 253)"><g id="3_4lof3r10ebf9o-stroke" fill="none" stroke-linecap="round" stroke-linejoin="round" stroke-miterlimit="4" stroke="#1AC6FF" stroke-width="2"><g><path d="M 29.375 28.748749L 21.25 20.623749M 10.625 39.373749L 21.25 28.748749M 10.625 34.373749L 10.625 39.373749L 15.625 39.373749M 39.375 10.62375L 29.375 20.623749M 34.375 10.62375L 39.375 10.62375L 39.375 15.62375"></path></g></g></g><g id="g-root-tx_sdfs_qs5gmv10ebg1v-stroke" data-item-order="1000000000" data-item-id="tx_sdfs_qs5gmv10ebg1v" data-item-class="Label Stroke" data-item-index="none" data-renderer-id="0" transform="translate(251, 256)"></g><g id="g-root-tx_pointclo_hrinp310e8ob0-stroke" data-item-order="1000000000" data-item-id="tx_pointclo_hrinp310e8ob0" data-item-class="Label Stroke" data-item-index="none" data-renderer-id="0" transform="translate(51, 256)"></g><g id="g-root-tx_original_1hf2e7r10e4gef-stroke" data-item-order="1000000000" data-item-id="tx_original_1hf2e7r10e4gef" data-item-class="Label Stroke" data-item-index="none" data-renderer-id="0" transform="translate(169, 15)"></g><g id="g-root-bars_8cwhj10e4f7o-stroke" data-item-order="1000000000" data-item-id="bars_8cwhj10e4f7o" data-item-class="Icon Stroke" data-item-index="none" data-renderer-id="0" transform="translate(133, 628)"><g id="bars_8cwhj10e4f7o-stroke" fill="none" stroke-linecap="round" stroke-linejoin="round" stroke-miterlimit="4" stroke="#1AC6FF" stroke-width="2"><g><path d="M 10.55125 34.375L 39.30125 34.375M 15.55125 34.375L 15.55125 28.75C 15.55125 28.404823 15.271428 28.125 14.92625 28.125L 12.42625 28.125C 12.081072 28.125 11.80125 28.404823 11.80125 28.75L 11.80125 34.375M 23.05125 34.375L 23.05125 22.5C 23.05125 22.154823 22.771427 21.875 22.42625 21.875L 19.92625 21.875C 19.581072 21.875 19.30125 22.154823 19.30125 22.5L 19.30125 34.375M 30.55125 34.375L 30.55125 25C 30.55125 24.654823 30.271427 24.375 29.92625 24.375L 27.42625 24.375C 27.081072 24.375 26.80125 24.654823 26.80125 25L 26.80125 34.375M 38.05125 34.375L 38.05125 16.25C 38.05125 15.904821 37.771427 15.625 37.42625 15.625L 34.92625 15.625C 34.581074 15.625 34.30125 15.904821 34.30125 16.25L 34.30125 34.375"></path></g></g></g><g id="g-root-1_1q6c96f10dt6o5-stroke" data-item-order="1000000000" data-item-id="1_1q6c96f10dt6o5" data-item-class="Icon Stroke" data-item-index="none" data-renderer-id="0" transform="translate(133, 372)"><g id="1_1q6c96f10dt6o5-stroke" fill="none" stroke-linecap="round" stroke-linejoin="round" stroke-miterlimit="4" stroke="#1AC6FF" stroke-width="2"><g><path d="M 17.4375 35.451248C 18.762774 35.230663 19.881689 34.344501 20.4 33.105M 13.02625 20.682499C 15.583341 21.130905 17.78021 22.756794 18.956249 25.071251M 17.22875 22.786251L 19.470001 21.105M 22.5 10.84125C 22.475971 12.094332 22.249725 13.335309 21.830002 14.516251M 20 15.625C 20 16.315355 20.559643 16.875 21.25 16.875C 21.940357 16.875 22.5 16.315355 22.5 15.625C 22.5 14.934644 21.940357 14.375 21.25 14.375C 20.559643 14.375 20 14.934644 20 15.625ZM 27.5 18.125C 27.5 18.815355 28.059643 19.375 28.75 19.375C 29.440357 19.375 30 18.815355 30 18.125C 30 17.434645 29.440357 16.875 28.75 16.875C 28.059643 16.875 27.5 17.434645 27.5 18.125ZM 31.875 23.125C 31.875 23.815357 32.434647 24.375 33.125 24.375C 33.815353 24.375 34.375 23.815357 34.375 23.125C 34.375 22.434643 33.815353 21.875 33.125 21.875C 32.434647 21.875 31.875 22.434643 31.875 23.125ZM 27.5 27.5C 27.5 28.190357 28.059643 28.75 28.75 28.75C 29.440357 28.75 30 28.190357 30 27.5C 30 26.809643 29.440357 26.25 28.75 26.25C 28.059643 26.25 27.5 26.809643 27.5 27.5ZM 19.375 20.625C 19.375 21.315357 19.934645 21.875 20.625 21.875C 21.315357 21.875 21.875 21.315357 21.875 20.625C 21.875 19.934645 21.315357 19.375 20.625 19.375C 19.934645 19.375 19.375 19.934645 19.375 20.625ZM 18.125 26.25C 18.125 26.940357 18.684645 27.5 19.375 27.5C 20.065357 27.5 20.625 26.940357 20.625 26.25C 20.625 25.559643 20.065357 25 19.375 25C 18.684645 25 18.125 25.559643 18.125 26.25ZM 39.375 25C 39.380005 23.241142 38.470627 21.60606 36.973751 20.682501C 37.058456 20.313419 37.102474 19.936169 37.105 19.557499C 37.130047 16.958282 35.151798 14.776985 32.5625 14.54875C 32.588318 13.525249 32.203011 12.534068 31.492691 11.796733C 30.782368 11.059398 29.806252 10.637381 28.782499 10.625C 27.163891 10.717669 25.719658 11.672218 25 13.125C 24.280342 11.672218 22.836109 10.717669 21.217501 10.625C 20.193748 10.637381 19.217632 11.059398 18.507309 11.796733C 17.796988 12.534068 17.411678 13.525249 17.4375 14.54875C 14.847234 14.777057 12.868641 16.959826 12.895 19.559999C 12.895476 19.938438 12.937393 20.315687 13.02 20.684999C 11.527056 21.612268 10.619104 23.245028 10.619104 25.002501C 10.619104 26.759972 11.527056 28.392731 13.02 29.32C 12.937393 29.689312 12.895476 30.066563 12.895 30.445C 12.871267 33.043259 14.849168 35.223087 17.4375 35.451248C 17.411678 36.474751 17.796988 37.465931 18.507309 38.203266C 19.217632 38.940601 20.193748 39.362617 21.217501 39.375C 22.710207 39.411186 24.124975 38.709881 24.999998 37.499996C 25.875023 38.709881 27.289793 39.411186 28.782499 39.374996C 29.806252 39.362617 30.782368 38.940601 31.492691 38.203266C 32.203011 37.465931 32.588318 36.474751 32.5625 35.451248C 35.152763 35.222942 37.131359 33.040173 37.105 30.439999C 37.102474 30.061331 37.058456 29.68408 36.973747 29.314999C 38.469868 28.391907 39.379135 26.757969 39.375 25ZM 25 13.125L 25 27.5M 25 32.447502L 25 37.5M 36.466251 17.078751L 33 18.813749C 31.987383 19.320721 30.797626 19.33271 29.775 18.846249M 28.75 26.25C 29.120653 24.703291 30.328293 23.495653 31.875002 23.125002M 32.5625 35.451248C 32.217499 34.25 31.62875 33.326248 30.625 33.125M 19.375 31.875C 19.375 32.565353 19.934645 33.125 20.625 33.125C 21.315357 33.125 21.875 32.565353 21.875 31.875C 21.875 31.184645 21.315357 30.625 20.625 30.625C 19.934645 30.625 19.375 31.184645 19.375 31.875ZM 28.125 33.125C 28.125 33.815353 28.684643 34.375 29.375 34.375C 30.065355 34.375 30.625 33.815353 30.625 33.125C 30.625 32.434647 30.065355 31.875 29.375 31.875C 28.684643 31.875 28.125 32.434647 28.125 33.125Z"></path></g></g></g><g id="g-root-tx_modeltra_4g28hj10dt8g4-stroke" data-item-order="1000000000" data-item-id="tx_modeltra_4g28hj10dt8g4" data-item-class="Label Stroke" data-item-index="none" data-renderer-id="0" transform="translate(169, 363)"></g><g id="g-root-reel_1448cxj10e4etk-stroke" data-item-order="1000000000" data-item-id="reel_1448cxj10e4etk" data-item-class="Icon Stroke" data-item-index="none" data-renderer-id="0" transform="translate(133, 24)"><g id="reel_1448cxj10e4etk-stroke" fill="none" stroke-linecap="round" stroke-linejoin="round" stroke-miterlimit="4" stroke="#A3A3A3" stroke-width="2"><g><path d="M 19.375 20.625C 19.375 26.147846 23.852154 30.625 29.375 30.625C 34.897846 30.625 39.375 26.147846 39.375 20.625C 39.375 15.102152 34.897846 10.625 29.375 10.625C 23.852154 10.625 19.375 15.102152 19.375 20.625ZM 22.76125 28.125L 13.75 28.125C 12.02411 28.125 10.625 29.524111 10.625 31.25C 10.625 32.975891 12.02411 34.375 13.75 34.375L 35.625 34.375C 37.005714 34.375 38.125 35.494286 38.125 36.875C 38.125 38.255714 37.005714 39.375 35.625 39.375L 23.125 39.375M 27.5 20.625C 27.5 21.660534 28.339466 22.5 29.375 22.5C 30.410536 22.5 31.25 21.660534 31.25 20.625C 31.25 19.589466 30.410536 18.75 29.375 18.75C 28.339466 18.75 27.5 19.589466 27.5 20.625ZM 31.048752 16.610001L 32.25 13.75L 32.25 13.75C 30.402554 13.030367 28.353943 13.021014 26.5 13.72375L 26.5 13.71L 27.696249 16.585001C 28.768658 16.142118 29.973337 16.144817 31.043751 16.592501ZM 25.625 18.950001L 22.5 17.75L 22.5 17.75C 21.778938 19.597176 21.769585 21.646317 22.473751 23.5L 22.45875 23.5L 25.48625 22.305C 24.983757 21.231592 25.035528 19.980715 25.625002 18.952499ZM 27.700001 24.375L 26.5 27.5L 26.5 27.5C 28.343451 28.21755 30.387259 28.227346 32.237503 27.5275L 32.237503 27.54125L 31.04125 24.51375C 29.969307 25.014931 28.720537 24.963169 27.693748 24.374998ZM 33.125 22.30125L 36.25 23.5L 36.25 23.5C 36.969799 21.65266 36.979595 19.604139 36.2775 17.75L 36.290001 17.75L 33.263748 18.946251C 33.765594 20.019356 33.713833 21.26955 33.125 22.297499Z"></path></g></g></g><g id="g-root-tx_dataanal_qung5310e4f7n-stroke" data-item-order="1000000000" data-item-id="tx_dataanal_qung5310e4f7n" data-item-class="Label Stroke" data-item-index="none" data-renderer-id="0" transform="translate(169, 619)"></g><g id="g-root-cu_1lpw9yv10e5u6c-stroke" data-item-order="1000000002" data-item-id="cu_1lpw9yv10e5u6c" data-item-class="Curve Stroke" data-item-index="none" data-renderer-id="0" transform="translate(193, 185)"><g id="cu_1lpw9yv10e5u6c-stroke" fill="none" stroke-linecap="round" stroke-linejoin="round" stroke-miterlimit="4" stroke="#A3A3A3" stroke-width="2"><g><path d="M 10 10L 10 24L 10 38L 45 38L 80 38L 80 52L 80 64"></path><path d="M 73.5 58L 80 64.5L 86.5 58" stroke-dasharray="none"></path></g></g></g><g id="g-root-cu_1lpw9yv10e5u69-stroke" data-item-order="1000000002" data-item-id="cu_1lpw9yv10e5u69" data-item-class="Curve Stroke" data-item-index="none" data-renderer-id="0" transform="translate(93, 185)"><g id="cu_1lpw9yv10e5u69-stroke" fill="none" stroke-linecap="round" stroke-linejoin="round" stroke-miterlimit="4" stroke="#A3A3A3" stroke-width="2"><g><path d="M 110 10L 110 24L 110 38L 60 38L 10 38L 10 52L 10 64"></path><path d="M 3.5 58L 10 64.5L 16.5 58" stroke-dasharray="none"></path></g></g></g><g id="g-root-cu_1lpw9yv10e5u6e-stroke" data-item-order="1000000002" data-item-id="cu_1lpw9yv10e5u6e" data-item-class="Curve Stroke" data-item-index="none" data-renderer-id="0" transform="translate(93, 295)"><g id="cu_1lpw9yv10e5u6e-stroke" fill="none" stroke-linecap="round" stroke-linejoin="round" stroke-miterlimit="4" stroke="#A3A3A3" stroke-width="2"><g><path d="M 10 10L 10 24L 10 38L 60 38L 110 38L 110 52L 110 64"></path><path d="M 103.5 58L 110 64.5L 116.5 58" stroke-dasharray="none"></path></g></g></g><g id="g-root-cu_1lpw9yv10e5u6h-stroke" data-item-order="1000000002" data-item-id="cu_1lpw9yv10e5u6h" data-item-class="Curve Stroke" data-item-index="none" data-renderer-id="0" transform="translate(193, 295)"><g id="cu_1lpw9yv10e5u6h-stroke" fill="none" stroke-linecap="round" stroke-linejoin="round" stroke-miterlimit="4" stroke="#A3A3A3" stroke-width="2"><g><path d="M 80 10L 80 24L 80 38L 45 38L 10 38L 10 52L 10 64"></path><path d="M 3.5 58L 10 64.5L 16.5 58" stroke-dasharray="none"></path></g></g></g><g id="g-root-cu_1q5ps3b10e5tdy-stroke" data-item-order="1000000002" data-item-id="cu_1q5ps3b10e5tdy" data-item-class="Curve Stroke" data-item-index="none" data-renderer-id="0" transform="translate(193, 75)"><g id="cu_1q5ps3b10e5tdy-stroke" fill="none" stroke-linecap="round" stroke-linejoin="round" stroke-miterlimit="4" stroke="#A3A3A3" stroke-width="2"><g><path d="M 10 10L 10 38L 10 64"></path><path d="M 3.5 58L 10 64.5L 16.5 58" stroke-dasharray="none"></path></g></g></g><g id="g-root-cu_1lpw9yv10e5u6j-stroke" data-item-order="1000000002" data-item-id="cu_1lpw9yv10e5u6j" data-item-class="Curve Stroke" data-item-index="none" data-renderer-id="0" transform="translate(193, 423)"><g id="cu_1lpw9yv10e5u6j-stroke" fill="none" stroke-linecap="round" stroke-linejoin="round" stroke-miterlimit="4" stroke="#A3A3A3" stroke-width="2"><g><path d="M 10 10L 10 38L 10 64"></path><path d="M 3.5 58L 10 64.5L 16.5 58" stroke-dasharray="none"></path></g></g></g><g id="g-root-cu_1ha2ruf10e5uyu-stroke" data-item-order="1000000002" data-item-id="cu_1ha2ruf10e5uyu" data-item-class="Curve Stroke" data-item-index="none" data-renderer-id="0" transform="translate(193, 551)"><g id="cu_1ha2ruf10e5uyu-stroke" fill="none" stroke-linecap="round" stroke-linejoin="round" stroke-miterlimit="4" stroke="#A3A3A3" stroke-width="2"><g><path d="M 10 10L 10 38L 10 64"></path><path d="M 3.5 58L 10 64.5L 16.5 58" stroke-dasharray="none"></path></g></g></g></g></g></svg>